<svg xmlns="http://www.w3.org/2000/svg" width="336.118" height="130.532" viewBox="0 0 336.118 130.532">
  <g id="Group_5" data-name="Group 5" transform="translate(-588.882 254.532)">
    <g id="Path_5" data-name="Path 5" transform="translate(655.736 -221.664) rotate(-41)" fill="none">
      <path d="M.63.391,50.1,0l-.63,79.965L0,80.356Z" stroke="none"/>
      <path d="M 47.07479476928711 3.023971557617188 L 3.606739044189453 3.36724853515625 L 3.023914337158203 77.33188629150391 L 46.49197006225586 76.98860931396484 L 47.07479476928711 3.023971557617188 M 50.09871292114258 -7.62939453125e-06 L 49.46860885620117 79.96519470214844 L -3.814697265625e-06 80.35586547851562 L 0.6301002502441406 0.3906631469726562 L 50.09871292114258 -7.62939453125e-06 Z" stroke="none" fill="#3cacae"/>
    </g>
    <text id="_Picture_Frames" data-name=" Picture Frames" transform="translate(589 -164)" fill="#3cacae" font-size="34" font-family="HelveticaNeue-Bold, Helvetica Neue" font-weight="700"><tspan x="0" y="33"> </tspan><tspan y="33" font-family="HelveticaNeue, Helvetica Neue" font-weight="400">Picture Frames</tspan></text>
    <text id="C" transform="translate(588.882 -224.823) rotate(-16)" fill="#fff" font-size="70" font-family="PTSans-NarrowBold, PT Sans Narrow" font-weight="700"><tspan x="0" y="63">C</tspan></text>
    <text id="r" transform="translate(624 -235)" fill="#fff" font-size="70" font-family="PTSans-NarrowBold, PT Sans Narrow" font-weight="700"><tspan x="0" y="63">r</tspan></text>
    <text id="e" transform="matrix(0.819, -0.574, 0.574, 0.819, 620.196, -220.175)" fill="#fff" font-size="70" font-family="PTSans-NarrowBold, PT Sans Narrow" font-weight="700"><tspan x="0" y="63">e</tspan></text>
    <text id="o" transform="translate(670 -237)" fill="#fff" font-size="70" font-family="PTSans-NarrowBold, PT Sans Narrow" font-weight="700"><tspan x="0" y="63">o</tspan></text>
  </g>
</svg>
